<mxfile host="Electron" agent="Mozilla/5.0 (Windows NT 10.0; Win64; x64) AppleWebKit/537.36 (KHTML, like Gecko) draw.io/26.2.2 Chrome/134.0.6998.178 Electron/35.1.2 Safari/537.36" version="26.2.2">
  <diagram name="Page-1" id="o9d-DeRVVlSlAtOaoTRP">
    <mxGraphModel dx="2867" dy="2396" grid="1" gridSize="10" guides="1" tooltips="1" connect="1" arrows="1" fold="1" page="1" pageScale="1" pageWidth="827" pageHeight="1169" math="0" shadow="0">
      <root>
        <mxCell id="0" />
        <mxCell id="1" parent="0" />
        <object placeholders="1" c4Name="Operator" c4Type="Person" c4Description="An operator controlling and monitoring the crane" label="&lt;font style=&quot;font-size: 16px&quot;&gt;&lt;b&gt;%c4Name%&lt;/b&gt;&lt;/font&gt;&lt;div&gt;[%c4Type%]&lt;/div&gt;&lt;br&gt;&lt;div&gt;&lt;font style=&quot;font-size: 11px&quot;&gt;&lt;font&gt;%c4Description%&lt;/font&gt;&lt;/font&gt;&lt;/div&gt;" id="Bv_dtwl9otNV3yJubEU_-1">
          <mxCell style="html=1;fontSize=11;dashed=0;whiteSpace=wrap;fillColor=default;strokeColor=#06315C;fontColor=default;shape=mxgraph.c4.person2;align=center;metaEdit=1;points=[[0.5,0,0],[1,0.5,0],[1,0.75,0],[0.75,1,0],[0.5,1,0],[0.25,1,0],[0,0.75,0],[0,0.5,0]];resizable=1;movable=1;rotatable=1;deletable=1;editable=1;locked=0;connectable=1;" vertex="1" parent="1">
            <mxGeometry x="500" y="360" width="150" height="140" as="geometry" />
          </mxCell>
        </object>
        <object placeholders="1" c4Name="Physical Crane Interface" c4Type="Container" c4Technology="Python" c4Description="The physical crane" label="&lt;font style=&quot;font-size: 16px&quot;&gt;&lt;b&gt;%c4Name%&lt;/b&gt;&lt;/font&gt;&lt;div&gt;[%c4Type%: %c4Technology%]&lt;/div&gt;&lt;br&gt;&lt;div&gt;&lt;font style=&quot;font-size: 11px&quot;&gt;&lt;font&gt;%c4Description%&lt;/font&gt;&lt;/font&gt;&lt;/div&gt;" id="Bv_dtwl9otNV3yJubEU_-2">
          <mxCell style="rounded=1;whiteSpace=wrap;html=1;fontSize=11;labelBackgroundColor=none;fillColor=default;fontColor=default;align=center;arcSize=10;strokeColor=#0E7DAD;metaEdit=1;resizable=1;points=[[0.25,0,0],[0.5,0,0],[0.75,0,0],[1,0.25,0],[1,0.5,0],[1,0.75,0],[0.75,1,0],[0.5,1,0],[0.25,1,0],[0,0.75,0],[0,0.5,0],[0,0.25,0]];movable=1;rotatable=1;deletable=1;editable=1;locked=0;connectable=1;" vertex="1" parent="1">
            <mxGeometry x="40" y="660" width="160" height="120" as="geometry" />
          </mxCell>
        </object>
        <object placeholders="1" c4Name="Logging&#xa;Application" c4Type="Container" c4Technology="Python" c4Description="Continuously logs state" label="&lt;font style=&quot;font-size: 16px&quot;&gt;&lt;b&gt;%c4Name%&lt;/b&gt;&lt;/font&gt;&lt;div&gt;[%c4Type%: %c4Technology%]&lt;/div&gt;&lt;br&gt;&lt;div&gt;&lt;font style=&quot;font-size: 11px&quot;&gt;&lt;font&gt;%c4Description%&lt;/font&gt;&lt;/font&gt;&lt;/div&gt;" id="Bv_dtwl9otNV3yJubEU_-3">
          <mxCell style="rounded=1;whiteSpace=wrap;html=1;fontSize=11;labelBackgroundColor=none;fillColor=default;fontColor=default;align=center;arcSize=10;strokeColor=#0E7DAD;metaEdit=1;resizable=1;points=[[0.25,0,0],[0.5,0,0],[0.75,0,0],[1,0.25,0],[1,0.5,0],[1,0.75,0],[0.75,1,0],[0.5,1,0],[0.25,1,0],[0,0.75,0],[0,0.5,0],[0,0.25,0]];movable=1;rotatable=1;deletable=1;editable=1;locked=0;connectable=1;" vertex="1" parent="1">
            <mxGeometry x="280" y="780" width="160" height="90" as="geometry" />
          </mxCell>
        </object>
        <object placeholders="1" c4Name="Human Machine Interface" c4Type="Container" c4Technology="Python" c4Description="Control interface for the operator" label="&lt;font style=&quot;font-size: 16px&quot;&gt;&lt;b&gt;%c4Name%&lt;/b&gt;&lt;/font&gt;&lt;div&gt;[%c4Type%: %c4Technology%]&lt;/div&gt;&lt;br&gt;&lt;div&gt;&lt;font style=&quot;font-size: 11px&quot;&gt;&lt;font&gt;%c4Description%&lt;/font&gt;&lt;/font&gt;&lt;/div&gt;" id="Bv_dtwl9otNV3yJubEU_-4">
          <mxCell style="rounded=1;whiteSpace=wrap;html=1;fontSize=11;labelBackgroundColor=none;fillColor=default;fontColor=default;align=center;arcSize=10;strokeColor=#0E7DAD;metaEdit=1;resizable=1;points=[[0.25,0,0],[0.5,0,0],[0.75,0,0],[1,0.25,0],[1,0.5,0],[1,0.75,0],[0.75,1,0],[0.5,1,0],[0.25,1,0],[0,0.75,0],[0,0.5,0],[0,0.25,0]];movable=1;rotatable=1;deletable=1;editable=1;locked=0;connectable=1;" vertex="1" parent="1">
            <mxGeometry x="280" y="540" width="160" height="100" as="geometry" />
          </mxCell>
        </object>
        <object placeholders="1" c4Name="Control Application" c4Type="Container" c4Technology="Python" c4Description="Controls the crane" label="&lt;font style=&quot;font-size: 16px&quot;&gt;&lt;b&gt;%c4Name%&lt;/b&gt;&lt;/font&gt;&lt;div&gt;[%c4Type%: %c4Technology%]&lt;/div&gt;&lt;br&gt;&lt;div&gt;&lt;font style=&quot;font-size: 11px&quot;&gt;&lt;font&gt;%c4Description%&lt;/font&gt;&lt;/font&gt;&lt;/div&gt;" id="Bv_dtwl9otNV3yJubEU_-5">
          <mxCell style="rounded=1;whiteSpace=wrap;html=1;fontSize=11;labelBackgroundColor=none;fillColor=default;fontColor=default;align=center;arcSize=10;strokeColor=#0E7DAD;metaEdit=1;resizable=1;points=[[0.25,0,0],[0.5,0,0],[0.75,0,0],[1,0.25,0],[1,0.5,0],[1,0.75,0],[0.75,1,0],[0.5,1,0],[0.25,1,0],[0,0.75,0],[0,0.5,0],[0,0.25,0]];movable=1;rotatable=1;deletable=1;editable=1;locked=0;connectable=1;" vertex="1" parent="1">
            <mxGeometry x="280" y="680" width="160" height="80" as="geometry" />
          </mxCell>
        </object>
        <object placeholders="1" c4Name="Gantry Crane" c4Type="SystemScopeBoundary" c4Application="System" label="&lt;font style=&quot;font-size: 16px&quot;&gt;&lt;b&gt;&lt;div style=&quot;text-align: left&quot;&gt;%c4Name%&lt;/div&gt;&lt;/b&gt;&lt;/font&gt;&lt;div style=&quot;text-align: left&quot;&gt;[%c4Application%]&lt;/div&gt;" id="Bv_dtwl9otNV3yJubEU_-7">
          <mxCell style="rounded=1;fontSize=11;whiteSpace=wrap;html=1;dashed=1;arcSize=20;fillColor=none;strokeColor=#666666;fontColor=#333333;labelBackgroundColor=none;align=left;verticalAlign=bottom;labelBorderColor=none;spacingTop=0;spacing=10;dashPattern=8 4;metaEdit=1;rotatable=0;perimeter=rectanglePerimeter;noLabel=0;labelPadding=0;allowArrows=0;connectable=0;expand=0;recursiveResize=0;editable=1;pointerEvents=0;absoluteArcSize=1;points=[[0.25,0,0],[0.5,0,0],[0.75,0,0],[1,0.25,0],[1,0.5,0],[1,0.75,0],[0.75,1,0],[0.5,1,0],[0.25,1,0],[0,0.75,0],[0,0.5,0],[0,0.25,0]];" vertex="1" parent="1">
            <mxGeometry x="20" y="520" width="500" height="380" as="geometry" />
          </mxCell>
        </object>
        <object placeholders="1" c4Type="Relationship" c4Description="controls" label="&lt;div style=&quot;text-align: left&quot;&gt;&lt;div style=&quot;text-align: center&quot;&gt;&lt;b&gt;%c4Description%&lt;/b&gt;&lt;/div&gt;" id="Bv_dtwl9otNV3yJubEU_-8">
          <mxCell style="endArrow=blockThin;html=1;fontSize=10;fontColor=#404040;strokeWidth=1;endFill=1;strokeColor=#828282;elbow=vertical;metaEdit=1;endSize=14;startSize=14;jumpStyle=arc;jumpSize=16;rounded=0;edgeStyle=orthogonalEdgeStyle;exitX=0;exitY=0.5;exitDx=0;exitDy=0;exitPerimeter=0;entryX=1;entryY=0.5;entryDx=0;entryDy=0;entryPerimeter=0;" edge="1" parent="1" source="Bv_dtwl9otNV3yJubEU_-5" target="Bv_dtwl9otNV3yJubEU_-2">
            <mxGeometry width="240" relative="1" as="geometry">
              <mxPoint x="450" y="620" as="sourcePoint" />
              <mxPoint x="690" y="620" as="targetPoint" />
            </mxGeometry>
          </mxCell>
        </object>
        <object placeholders="1" c4Type="Relationship" c4Description="data" label="&lt;div style=&quot;text-align: left&quot;&gt;&lt;div style=&quot;text-align: center&quot;&gt;&lt;b&gt;%c4Description%&lt;/b&gt;&lt;/div&gt;" id="Bv_dtwl9otNV3yJubEU_-9">
          <mxCell style="endArrow=blockThin;html=1;fontSize=10;fontColor=#404040;strokeWidth=1;endFill=1;strokeColor=#828282;elbow=vertical;metaEdit=1;endSize=14;startSize=14;jumpStyle=arc;jumpSize=16;rounded=0;edgeStyle=orthogonalEdgeStyle;exitX=0.5;exitY=1;exitDx=0;exitDy=0;exitPerimeter=0;entryX=0;entryY=0.5;entryDx=0;entryDy=0;entryPerimeter=0;" edge="1" parent="1" source="Bv_dtwl9otNV3yJubEU_-2" target="Bv_dtwl9otNV3yJubEU_-3">
            <mxGeometry width="240" relative="1" as="geometry">
              <mxPoint x="320" y="1040" as="sourcePoint" />
              <mxPoint x="210" y="1130" as="targetPoint" />
            </mxGeometry>
          </mxCell>
        </object>
        <object placeholders="1" c4Name="Researcher" c4Type="Person" c4Description="A researcher researching digital twin technologies" label="&lt;font style=&quot;font-size: 16px&quot;&gt;&lt;b&gt;%c4Name%&lt;/b&gt;&lt;/font&gt;&lt;div&gt;[%c4Type%]&lt;/div&gt;&lt;br&gt;&lt;div&gt;&lt;font style=&quot;font-size: 11px&quot;&gt;&lt;font&gt;%c4Description%&lt;/font&gt;&lt;/font&gt;&lt;/div&gt;" id="Bv_dtwl9otNV3yJubEU_-10">
          <mxCell style="html=1;fontSize=11;dashed=0;whiteSpace=wrap;fillColor=default;strokeColor=#06315C;fontColor=default;shape=mxgraph.c4.person2;align=center;metaEdit=1;points=[[0.5,0,0],[1,0.5,0],[1,0.75,0],[0.75,1,0],[0.5,1,0],[0.25,1,0],[0,0.75,0],[0,0.5,0]];resizable=1;movable=1;rotatable=1;deletable=1;editable=1;locked=0;connectable=1;" vertex="1" parent="1">
            <mxGeometry x="930" y="360" width="150" height="140" as="geometry" />
          </mxCell>
        </object>
        <object placeholders="1" c4Name="Digital Twin" c4Type="SystemScopeBoundary" c4Application="System" label="&lt;font style=&quot;font-size: 16px&quot;&gt;&lt;b&gt;&lt;div style=&quot;text-align: left&quot;&gt;%c4Name%&lt;/div&gt;&lt;/b&gt;&lt;/font&gt;&lt;div style=&quot;text-align: left&quot;&gt;[%c4Application%]&lt;/div&gt;" id="Bv_dtwl9otNV3yJubEU_-11">
          <mxCell style="rounded=1;fontSize=11;whiteSpace=wrap;html=1;dashed=1;arcSize=20;fillColor=none;strokeColor=#666666;fontColor=#333333;labelBackgroundColor=none;align=left;verticalAlign=bottom;labelBorderColor=none;spacingTop=0;spacing=10;dashPattern=8 4;metaEdit=1;rotatable=0;perimeter=rectanglePerimeter;noLabel=0;labelPadding=0;allowArrows=0;connectable=0;expand=0;recursiveResize=0;editable=1;pointerEvents=0;absoluteArcSize=1;points=[[0.25,0,0],[0.5,0,0],[0.75,0,0],[1,0.25,0],[1,0.5,0],[1,0.75,0],[0.75,1,0],[0.5,1,0],[0.25,1,0],[0,0.75,0],[0,0.5,0],[0,0.25,0]];" vertex="1" parent="1">
            <mxGeometry x="620" y="520" width="620" height="380" as="geometry" />
          </mxCell>
        </object>
        <object placeholders="1" c4Name="Simulation Service" c4Type="Container" c4Technology="Python" c4Description="Simulates trajectories" label="&lt;font style=&quot;font-size: 16px&quot;&gt;&lt;b&gt;%c4Name%&lt;/b&gt;&lt;/font&gt;&lt;div&gt;[%c4Type%: %c4Technology%]&lt;/div&gt;&lt;br&gt;&lt;div&gt;&lt;font style=&quot;font-size: 11px&quot;&gt;&lt;font&gt;%c4Description%&lt;/font&gt;&lt;/font&gt;&lt;/div&gt;" id="Bv_dtwl9otNV3yJubEU_-12">
          <mxCell style="rounded=1;whiteSpace=wrap;html=1;fontSize=11;labelBackgroundColor=none;fillColor=default;fontColor=default;align=center;arcSize=10;strokeColor=#0E7DAD;metaEdit=1;resizable=1;points=[[0.25,0,0],[0.5,0,0],[0.75,0,0],[1,0.25,0],[1,0.5,0],[1,0.75,0],[0.75,1,0],[0.5,1,0],[0.25,1,0],[0,0.75,0],[0,0.5,0],[0,0.25,0]];movable=1;rotatable=1;deletable=1;editable=1;locked=0;connectable=1;" vertex="1" parent="1">
            <mxGeometry x="880" y="550" width="160" height="100" as="geometry" />
          </mxCell>
        </object>
        <object placeholders="1" c4Name="Dashboard" c4Type="Container" c4Technology="Grafana" c4Description="Visualizes data" label="&lt;font style=&quot;font-size: 16px&quot;&gt;&lt;b&gt;%c4Name%&lt;/b&gt;&lt;/font&gt;&lt;div&gt;[%c4Type%: %c4Technology%]&lt;/div&gt;&lt;br&gt;&lt;div&gt;&lt;font style=&quot;font-size: 11px&quot;&gt;&lt;font&gt;%c4Description%&lt;/font&gt;&lt;/font&gt;&lt;/div&gt;" id="Bv_dtwl9otNV3yJubEU_-13">
          <mxCell style="rounded=1;whiteSpace=wrap;html=1;fontSize=11;labelBackgroundColor=none;fillColor=default;fontColor=default;align=center;arcSize=10;strokeColor=#0E7DAD;metaEdit=1;resizable=1;points=[[0.25,0,0],[0.5,0,0],[0.75,0,0],[1,0.25,0],[1,0.5,0],[1,0.75,0],[0.75,1,0],[0.5,1,0],[0.25,1,0],[0,0.75,0],[0,0.5,0],[0,0.25,0]];movable=1;rotatable=1;deletable=1;editable=1;locked=0;connectable=1;" vertex="1" parent="1">
            <mxGeometry x="700" y="550" width="130" height="80" as="geometry" />
          </mxCell>
        </object>
        <object placeholders="1" c4Name="Trajectory Generator Service" c4Type="Container" c4Technology="Python" c4Description="Generates optimal trajectories" label="&lt;font style=&quot;font-size: 16px&quot;&gt;&lt;b&gt;%c4Name%&lt;/b&gt;&lt;/font&gt;&lt;div&gt;[%c4Type%: %c4Technology%]&lt;/div&gt;&lt;br&gt;&lt;div&gt;&lt;font style=&quot;font-size: 11px&quot;&gt;&lt;font&gt;%c4Description%&lt;/font&gt;&lt;/font&gt;&lt;/div&gt;" id="Bv_dtwl9otNV3yJubEU_-14">
          <mxCell style="rounded=1;whiteSpace=wrap;html=1;fontSize=11;labelBackgroundColor=none;fillColor=default;fontColor=default;align=center;arcSize=10;strokeColor=#0E7DAD;metaEdit=1;resizable=1;points=[[0.25,0,0],[0.5,0,0],[0.75,0,0],[1,0.25,0],[1,0.5,0],[1,0.75,0],[0.75,1,0],[0.5,1,0],[0.25,1,0],[0,0.75,0],[0,0.5,0],[0,0.25,0]];movable=1;rotatable=1;deletable=1;editable=1;locked=0;connectable=1;" vertex="1" parent="1">
            <mxGeometry x="650" y="670" width="180" height="100" as="geometry" />
          </mxCell>
        </object>
        <object placeholders="1" c4Name="MQTT Broker" c4Type="Container" c4Technology="Eclipse Mosquitto" c4Description="Message broker for communication between components" label="&lt;font style=&quot;font-size: 16px&quot;&gt;&lt;b&gt;%c4Name%&lt;/b&gt;&lt;/font&gt;&lt;div&gt;[%c4Type%: %c4Technology%]&lt;/div&gt;&lt;br&gt;&lt;div&gt;&lt;font style=&quot;font-size: 11px&quot;&gt;&lt;font&gt;%c4Description%&lt;/font&gt;&lt;/font&gt;&lt;/div&gt;" id="Bv_dtwl9otNV3yJubEU_-15">
          <mxCell style="rounded=1;whiteSpace=wrap;html=1;fontSize=11;labelBackgroundColor=none;fillColor=default;fontColor=default;align=center;arcSize=10;strokeColor=#0E7DAD;metaEdit=1;resizable=1;points=[[0.25,0,0],[0.5,0,0],[0.75,0,0],[1,0.25,0],[1,0.5,0],[1,0.75,0],[0.75,1,0],[0.5,1,0],[0.25,1,0],[0,0.75,0],[0,0.5,0],[0,0.25,0]];movable=1;rotatable=1;deletable=1;editable=1;locked=0;connectable=1;" vertex="1" parent="1">
            <mxGeometry x="1060" y="770" width="160" height="100" as="geometry" />
          </mxCell>
        </object>
        <object placeholders="1" c4Name="Continuous Validation Service" c4Type="Container" c4Technology="Python" c4Description="Continuously compares simulated trajectories with measurements" label="&lt;font style=&quot;font-size: 16px&quot;&gt;&lt;b&gt;%c4Name%&lt;/b&gt;&lt;/font&gt;&lt;div&gt;[%c4Type%: %c4Technology%]&lt;/div&gt;&lt;br&gt;&lt;div&gt;&lt;font style=&quot;font-size: 11px&quot;&gt;&lt;font&gt;%c4Description%&lt;/font&gt;&lt;/font&gt;&lt;/div&gt;" id="Bv_dtwl9otNV3yJubEU_-16">
          <mxCell style="rounded=1;whiteSpace=wrap;html=1;fontSize=11;labelBackgroundColor=none;fillColor=default;fontColor=default;align=center;arcSize=10;strokeColor=#0E7DAD;metaEdit=1;resizable=1;points=[[0.25,0,0],[0.5,0,0],[0.75,0,0],[1,0.25,0],[1,0.5,0],[1,0.75,0],[0.75,1,0],[0.5,1,0],[0.25,1,0],[0,0.75,0],[0,0.5,0],[0,0.25,0]];movable=1;rotatable=1;deletable=1;editable=1;locked=0;connectable=1;" vertex="1" parent="1">
            <mxGeometry x="1060" y="550" width="160" height="110" as="geometry" />
          </mxCell>
        </object>
        <object placeholders="1" c4Name="Database" c4Type="Container" c4Technology="TimescaleDB" c4Description="Stores system logs, states, information" label="&lt;font style=&quot;font-size: 16px&quot;&gt;&lt;b&gt;%c4Name%&lt;/b&gt;&lt;/font&gt;&lt;div&gt;[%c4Type%:&amp;nbsp;%c4Technology%]&lt;/div&gt;&lt;br&gt;&lt;div&gt;&lt;font style=&quot;font-size: 11px&quot;&gt;&lt;font&gt;%c4Description%&lt;/font&gt;&lt;/font&gt;&lt;/div&gt;" id="Bv_dtwl9otNV3yJubEU_-17">
          <mxCell style="shape=cylinder3;size=15;whiteSpace=wrap;html=1;boundedLbl=1;rounded=0;labelBackgroundColor=none;fillColor=default;fontSize=12;fontColor=default;align=center;strokeColor=#0E7DAD;metaEdit=1;points=[[0.5,0,0],[1,0.25,0],[1,0.5,0],[1,0.75,0],[0.5,1,0],[0,0.75,0],[0,0.5,0],[0,0.25,0]];resizable=1;movable=1;rotatable=1;deletable=1;editable=1;locked=0;connectable=1;" vertex="1" parent="1">
            <mxGeometry x="885" y="770" width="150" height="110" as="geometry" />
          </mxCell>
        </object>
        <object placeholders="1" c4Type="Relationship" c4Description="Controls" label="&lt;div style=&quot;text-align: left&quot;&gt;&lt;div style=&quot;text-align: center&quot;&gt;&lt;b&gt;%c4Description%&lt;/b&gt;&lt;/div&gt;" id="Bv_dtwl9otNV3yJubEU_-18">
          <mxCell style="endArrow=blockThin;html=1;fontSize=10;fontColor=#404040;strokeWidth=1;endFill=1;strokeColor=#828282;elbow=vertical;metaEdit=1;endSize=14;startSize=14;jumpStyle=arc;jumpSize=16;rounded=0;edgeStyle=orthogonalEdgeStyle;exitX=0.5;exitY=1;exitDx=0;exitDy=0;exitPerimeter=0;" edge="1" parent="1" source="Bv_dtwl9otNV3yJubEU_-4">
            <mxGeometry x="-0.5065" width="240" relative="1" as="geometry">
              <mxPoint x="450" y="715" as="sourcePoint" />
              <mxPoint x="360" y="680" as="targetPoint" />
              <mxPoint as="offset" />
            </mxGeometry>
          </mxCell>
        </object>
        <object placeholders="1" c4Type="Relationship" c4Description="Configures" label="&lt;div style=&quot;text-align: left&quot;&gt;&lt;div style=&quot;text-align: center&quot;&gt;&lt;b&gt;%c4Description%&lt;/b&gt;&lt;/div&gt;" id="Bv_dtwl9otNV3yJubEU_-20">
          <mxCell style="endArrow=blockThin;html=1;fontSize=10;fontColor=#404040;strokeWidth=1;endFill=1;strokeColor=#828282;elbow=vertical;metaEdit=1;endSize=14;startSize=14;jumpStyle=arc;jumpSize=16;rounded=0;edgeStyle=orthogonalEdgeStyle;exitX=1;exitY=0.5;exitDx=0;exitDy=0;exitPerimeter=0;entryX=1;entryY=0.25;entryDx=0;entryDy=0;entryPerimeter=0;" edge="1" parent="1">
            <mxGeometry x="-0.3419" width="240" relative="1" as="geometry">
              <mxPoint x="440" y="590" as="sourcePoint" />
              <mxPoint x="440" y="803" as="targetPoint" />
              <Array as="points">
                <mxPoint x="470" y="590" />
                <mxPoint x="470" y="803" />
                <mxPoint x="440" y="803" />
              </Array>
              <mxPoint as="offset" />
            </mxGeometry>
          </mxCell>
        </object>
        <object placeholders="1" c4Type="Relationship" c4Description="request&#xa;trajectories" label="&lt;div style=&quot;text-align: left&quot;&gt;&lt;div style=&quot;text-align: center&quot;&gt;&lt;b&gt;%c4Description%&lt;/b&gt;&lt;/div&gt;" id="Bv_dtwl9otNV3yJubEU_-21">
          <mxCell style="endArrow=blockThin;html=1;fontSize=10;fontColor=#404040;strokeWidth=1;endFill=1;strokeColor=#828282;elbow=vertical;metaEdit=1;endSize=14;startSize=14;jumpStyle=arc;jumpSize=16;rounded=0;edgeStyle=orthogonalEdgeStyle;exitX=1;exitY=0.5;exitDx=0;exitDy=0;exitPerimeter=0;entryX=0;entryY=0.5;entryDx=0;entryDy=0;entryPerimeter=0;" edge="1" parent="1" source="Bv_dtwl9otNV3yJubEU_-5" target="Bv_dtwl9otNV3yJubEU_-14">
            <mxGeometry x="0.2" width="240" relative="1" as="geometry">
              <mxPoint x="570" y="680" as="sourcePoint" />
              <mxPoint x="660" y="810" as="targetPoint" />
              <Array as="points">
                <mxPoint x="650" y="720" />
                <mxPoint x="650" y="720" />
              </Array>
              <mxPoint as="offset" />
            </mxGeometry>
          </mxCell>
        </object>
        <object placeholders="1" c4Type="Relationship" c4Description="store&#xa;state" label="&lt;div style=&quot;text-align: left&quot;&gt;&lt;div style=&quot;text-align: center&quot;&gt;&lt;b&gt;%c4Description%&lt;/b&gt;&lt;/div&gt;" id="Bv_dtwl9otNV3yJubEU_-22">
          <mxCell style="endArrow=blockThin;html=1;fontSize=10;fontColor=#404040;strokeWidth=1;endFill=1;strokeColor=#828282;elbow=vertical;metaEdit=1;endSize=14;startSize=14;jumpStyle=arc;jumpSize=16;rounded=0;edgeStyle=orthogonalEdgeStyle;exitX=1;exitY=0.5;exitDx=0;exitDy=0;exitPerimeter=0;entryX=0;entryY=0.5;entryDx=0;entryDy=0;entryPerimeter=0;" edge="1" parent="1" source="Bv_dtwl9otNV3yJubEU_-3" target="Bv_dtwl9otNV3yJubEU_-17">
            <mxGeometry x="-0.3953" width="240" relative="1" as="geometry">
              <mxPoint x="450" y="730" as="sourcePoint" />
              <mxPoint x="660" y="730" as="targetPoint" />
              <Array as="points">
                <mxPoint x="640" y="825" />
                <mxPoint x="640" y="825" />
              </Array>
              <mxPoint as="offset" />
            </mxGeometry>
          </mxCell>
        </object>
        <object placeholders="1" c4Type="Relationship" c4Description="Get data&#xa;" label="&lt;div style=&quot;text-align: left&quot;&gt;&lt;div style=&quot;text-align: center&quot;&gt;&lt;b&gt;%c4Description%&lt;/b&gt;&lt;/div&gt;" id="Bv_dtwl9otNV3yJubEU_-23">
          <mxCell style="endArrow=blockThin;html=1;fontSize=10;fontColor=#404040;strokeWidth=1;endFill=1;strokeColor=#828282;elbow=vertical;metaEdit=1;endSize=14;startSize=14;jumpStyle=arc;jumpSize=16;rounded=0;edgeStyle=orthogonalEdgeStyle;exitX=1;exitY=0.5;exitDx=0;exitDy=0;exitPerimeter=0;entryX=0;entryY=0.25;entryDx=0;entryDy=0;entryPerimeter=0;" edge="1" parent="1" source="Bv_dtwl9otNV3yJubEU_-13" target="Bv_dtwl9otNV3yJubEU_-17">
            <mxGeometry x="-0.3905" width="240" relative="1" as="geometry">
              <mxPoint x="750" y="390" as="sourcePoint" />
              <mxPoint x="1180" y="390" as="targetPoint" />
              <Array as="points">
                <mxPoint x="850" y="590" />
                <mxPoint x="850" y="798" />
              </Array>
              <mxPoint as="offset" />
            </mxGeometry>
          </mxCell>
        </object>
        <object placeholders="1" c4Type="Relationship" c4Description="store&#xa;results" label="&lt;div style=&quot;text-align: left&quot;&gt;&lt;div style=&quot;text-align: center&quot;&gt;&lt;b&gt;%c4Description%&lt;/b&gt;&lt;/div&gt;" id="Bv_dtwl9otNV3yJubEU_-24">
          <mxCell style="endArrow=blockThin;html=1;fontSize=10;fontColor=#404040;strokeWidth=1;endFill=1;strokeColor=#828282;elbow=vertical;metaEdit=1;endSize=14;startSize=14;jumpStyle=arc;jumpSize=16;rounded=0;edgeStyle=orthogonalEdgeStyle;exitX=0.5;exitY=1;exitDx=0;exitDy=0;exitPerimeter=0;entryX=0.5;entryY=0;entryDx=0;entryDy=0;entryPerimeter=0;" edge="1" parent="1" source="Bv_dtwl9otNV3yJubEU_-12" target="Bv_dtwl9otNV3yJubEU_-17">
            <mxGeometry x="-0.3953" width="240" relative="1" as="geometry">
              <mxPoint x="460" y="845" as="sourcePoint" />
              <mxPoint x="890" y="845" as="targetPoint" />
              <Array as="points">
                <mxPoint x="960" y="770" />
              </Array>
              <mxPoint as="offset" />
            </mxGeometry>
          </mxCell>
        </object>
        <object placeholders="1" c4Type="Relationship" c4Description="store validation&#xa;results/retrieve data" label="&lt;div style=&quot;text-align: left&quot;&gt;&lt;div style=&quot;text-align: center&quot;&gt;&lt;b&gt;%c4Description%&lt;/b&gt;&lt;/div&gt;" id="Bv_dtwl9otNV3yJubEU_-25">
          <mxCell style="endArrow=blockThin;html=1;fontSize=10;fontColor=#404040;strokeWidth=1;endFill=1;strokeColor=#828282;elbow=vertical;metaEdit=1;endSize=14;startSize=14;jumpStyle=arc;jumpSize=16;rounded=0;edgeStyle=orthogonalEdgeStyle;exitX=0.25;exitY=1;exitDx=0;exitDy=0;exitPerimeter=0;entryX=0.5;entryY=0;entryDx=0;entryDy=0;entryPerimeter=0;startArrow=blockThin;startFill=1;" edge="1" parent="1" source="Bv_dtwl9otNV3yJubEU_-16" target="Bv_dtwl9otNV3yJubEU_-17">
            <mxGeometry x="0.0403" width="240" relative="1" as="geometry">
              <mxPoint x="470" y="855" as="sourcePoint" />
              <mxPoint x="900" y="855" as="targetPoint" />
              <Array as="points">
                <mxPoint x="1100" y="720" />
                <mxPoint x="960" y="720" />
              </Array>
              <mxPoint as="offset" />
            </mxGeometry>
          </mxCell>
        </object>
        <object placeholders="1" c4Type="Relationship" c4Description="Operate" label="&lt;div style=&quot;text-align: left&quot;&gt;&lt;div style=&quot;text-align: center&quot;&gt;&lt;b&gt;%c4Description%&lt;/b&gt;&lt;/div&gt;" id="Bv_dtwl9otNV3yJubEU_-26">
          <mxCell style="endArrow=blockThin;html=1;fontSize=10;fontColor=#404040;strokeWidth=1;endFill=1;strokeColor=#828282;elbow=vertical;metaEdit=1;endSize=14;startSize=14;jumpStyle=arc;jumpSize=16;rounded=0;edgeStyle=orthogonalEdgeStyle;exitX=0;exitY=0.75;exitDx=0;exitDy=0;exitPerimeter=0;entryX=0.5;entryY=0;entryDx=0;entryDy=0;entryPerimeter=0;" edge="1" parent="1" source="Bv_dtwl9otNV3yJubEU_-1" target="Bv_dtwl9otNV3yJubEU_-4">
            <mxGeometry x="-0.3953" width="240" relative="1" as="geometry">
              <mxPoint x="480" y="865" as="sourcePoint" />
              <mxPoint x="910" y="865" as="targetPoint" />
              <Array as="points">
                <mxPoint x="500" y="450" />
                <mxPoint x="360" y="450" />
              </Array>
              <mxPoint as="offset" />
            </mxGeometry>
          </mxCell>
        </object>
        <object placeholders="1" c4Type="Relationship" c4Description="Monitor" label="&lt;div style=&quot;text-align: left&quot;&gt;&lt;div style=&quot;text-align: center&quot;&gt;&lt;b&gt;%c4Description%&lt;/b&gt;&lt;/div&gt;" id="Bv_dtwl9otNV3yJubEU_-27">
          <mxCell style="endArrow=blockThin;html=1;fontSize=10;fontColor=#404040;strokeWidth=1;endFill=1;strokeColor=#828282;elbow=vertical;metaEdit=1;endSize=14;startSize=14;jumpStyle=arc;jumpSize=16;rounded=0;edgeStyle=orthogonalEdgeStyle;exitX=1;exitY=0.75;exitDx=0;exitDy=0;exitPerimeter=0;entryX=0.5;entryY=0;entryDx=0;entryDy=0;entryPerimeter=0;" edge="1" parent="1" source="Bv_dtwl9otNV3yJubEU_-1" target="Bv_dtwl9otNV3yJubEU_-13">
            <mxGeometry x="-0.3953" width="240" relative="1" as="geometry">
              <mxPoint x="490" y="875" as="sourcePoint" />
              <mxPoint x="920" y="875" as="targetPoint" />
              <Array as="points">
                <mxPoint x="650" y="450" />
                <mxPoint x="765" y="450" />
              </Array>
              <mxPoint as="offset" />
            </mxGeometry>
          </mxCell>
        </object>
        <object placeholders="1" c4Type="Relationship" c4Description="Perform research" label="&lt;div style=&quot;text-align: left&quot;&gt;&lt;div style=&quot;text-align: center&quot;&gt;&lt;b&gt;%c4Description%&lt;/b&gt;&lt;/div&gt;" id="Bv_dtwl9otNV3yJubEU_-28">
          <mxCell style="endArrow=blockThin;html=1;fontSize=10;fontColor=#404040;strokeWidth=1;endFill=1;strokeColor=#828282;elbow=vertical;metaEdit=1;endSize=14;startSize=14;jumpStyle=arc;jumpSize=16;rounded=0;edgeStyle=orthogonalEdgeStyle;exitX=1.013;exitY=0.66;exitDx=0;exitDy=0;exitPerimeter=0;" edge="1" parent="1" source="Bv_dtwl9otNV3yJubEU_-10">
            <mxGeometry x="-0.3953" width="240" relative="1" as="geometry">
              <mxPoint x="500" y="885" as="sourcePoint" />
              <mxPoint x="1180" y="520" as="targetPoint" />
              <Array as="points">
                <mxPoint x="1180" y="452" />
              </Array>
              <mxPoint as="offset" />
            </mxGeometry>
          </mxCell>
        </object>
        <object placeholders="1" c4Name="Gantry Crane" c4Type="System" c4Description="The physical crane" label="&lt;font style=&quot;font-size: 16px&quot;&gt;&lt;b&gt;%c4Name%&lt;/b&gt;&lt;/font&gt;&lt;div&gt;[%c4Type%]&lt;/div&gt;&lt;br&gt;&lt;div&gt;&lt;font style=&quot;font-size: 11px&quot;&gt;&lt;font&gt;%c4Description%&lt;/font&gt;&lt;/font&gt;&lt;/div&gt;" id="Bv_dtwl9otNV3yJubEU_-29">
          <mxCell style="rounded=1;whiteSpace=wrap;html=1;labelBackgroundColor=none;fillColor=default;fontColor=default;align=center;arcSize=10;strokeColor=#0D5091;metaEdit=1;resizable=1;points=[[0.25,0,0],[0.5,0,0],[0.75,0,0],[1,0.25,0],[1,0.5,0],[1,0.75,0],[0.75,1,0],[0.5,1,0],[0.25,1,0],[0,0.75,0],[0,0.5,0],[0,0.25,0]];movable=1;rotatable=1;deletable=1;editable=1;locked=0;connectable=1;" vertex="1" parent="1">
            <mxGeometry x="130" y="70" width="150" height="80" as="geometry" />
          </mxCell>
        </object>
        <object placeholders="1" c4Name="Operator" c4Type="Person" c4Description="An operator controlling and monitoring the crane" label="&lt;font style=&quot;font-size: 16px&quot;&gt;&lt;b&gt;%c4Name%&lt;/b&gt;&lt;/font&gt;&lt;div&gt;[%c4Type%]&lt;/div&gt;&lt;br&gt;&lt;div&gt;&lt;font style=&quot;font-size: 11px&quot;&gt;&lt;font&gt;%c4Description%&lt;/font&gt;&lt;/font&gt;&lt;/div&gt;" id="Bv_dtwl9otNV3yJubEU_-30">
          <mxCell style="html=1;fontSize=11;dashed=0;whiteSpace=wrap;fillColor=default;strokeColor=#06315C;fontColor=default;shape=mxgraph.c4.person2;align=center;metaEdit=1;points=[[0.5,0,0],[1,0.5,0],[1,0.75,0],[0.75,1,0],[0.5,1,0],[0.25,1,0],[0,0.75,0],[0,0.5,0]];resizable=1;movable=1;rotatable=1;deletable=1;editable=1;locked=0;connectable=1;" vertex="1" parent="1">
            <mxGeometry x="130" y="-150" width="150" height="140" as="geometry" />
          </mxCell>
        </object>
        <object placeholders="1" c4Name="Researcher" c4Type="Person" c4Description="A researcher researching digital twin technologies" label="&lt;font style=&quot;font-size: 16px&quot;&gt;&lt;b&gt;%c4Name%&lt;/b&gt;&lt;/font&gt;&lt;div&gt;[%c4Type%]&lt;/div&gt;&lt;br&gt;&lt;div&gt;&lt;font style=&quot;font-size: 11px&quot;&gt;&lt;font&gt;%c4Description%&lt;/font&gt;&lt;/font&gt;&lt;/div&gt;" id="Bv_dtwl9otNV3yJubEU_-31">
          <mxCell style="html=1;fontSize=11;dashed=0;whiteSpace=wrap;fillColor=default;strokeColor=#06315C;fontColor=default;shape=mxgraph.c4.person2;align=center;metaEdit=1;points=[[0.5,0,0],[1,0.5,0],[1,0.75,0],[0.75,1,0],[0.5,1,0],[0.25,1,0],[0,0.75,0],[0,0.5,0]];resizable=1;movable=1;rotatable=1;deletable=1;editable=1;locked=0;connectable=1;" vertex="1" parent="1">
            <mxGeometry x="400" y="-150" width="150" height="140" as="geometry" />
          </mxCell>
        </object>
        <object placeholders="1" c4Name="Digital Twin" c4Type="Software System" c4Description="The crane&#39;s digital twin" label="&lt;font style=&quot;font-size: 16px&quot;&gt;&lt;b&gt;%c4Name%&lt;/b&gt;&lt;/font&gt;&lt;div&gt;[%c4Type%]&lt;/div&gt;&lt;br&gt;&lt;div&gt;&lt;font style=&quot;font-size: 11px&quot;&gt;&lt;font&gt;%c4Description%&lt;/font&gt;&lt;/font&gt;&lt;/div&gt;" id="Bv_dtwl9otNV3yJubEU_-32">
          <mxCell style="rounded=1;whiteSpace=wrap;html=1;labelBackgroundColor=none;fillColor=default;fontColor=default;align=center;arcSize=10;strokeColor=#0D5091;metaEdit=1;resizable=1;points=[[0.25,0,0],[0.5,0,0],[0.75,0,0],[1,0.25,0],[1,0.5,0],[1,0.75,0],[0.75,1,0],[0.5,1,0],[0.25,1,0],[0,0.75,0],[0,0.5,0],[0,0.25,0]];movable=1;rotatable=1;deletable=1;editable=1;locked=0;connectable=1;" vertex="1" parent="1">
            <mxGeometry x="400" y="70" width="150" height="80" as="geometry" />
          </mxCell>
        </object>
        <object placeholders="1" c4Type="Relationship" c4Description="Operate" label="&lt;div style=&quot;text-align: left&quot;&gt;&lt;div style=&quot;text-align: center&quot;&gt;&lt;b&gt;%c4Description%&lt;/b&gt;&lt;/div&gt;" id="Bv_dtwl9otNV3yJubEU_-33">
          <mxCell style="endArrow=blockThin;html=1;fontSize=10;fontColor=#404040;strokeWidth=1;endFill=1;strokeColor=#828282;elbow=vertical;metaEdit=1;endSize=14;startSize=14;jumpStyle=arc;jumpSize=16;rounded=0;edgeStyle=orthogonalEdgeStyle;exitX=0.5;exitY=1;exitDx=0;exitDy=0;exitPerimeter=0;entryX=0.5;entryY=0;entryDx=0;entryDy=0;entryPerimeter=0;" edge="1" parent="1" source="Bv_dtwl9otNV3yJubEU_-30" target="Bv_dtwl9otNV3yJubEU_-29">
            <mxGeometry x="-0.3953" width="240" relative="1" as="geometry">
              <mxPoint x="280" y="235" as="sourcePoint" />
              <mxPoint x="140" y="310" as="targetPoint" />
              <Array as="points">
                <mxPoint x="205" y="10" />
                <mxPoint x="205" y="10" />
              </Array>
              <mxPoint as="offset" />
            </mxGeometry>
          </mxCell>
        </object>
        <object placeholders="1" c4Type="Relationship" c4Description="Provide data" label="&lt;div style=&quot;text-align: left&quot;&gt;&lt;div style=&quot;text-align: center&quot;&gt;&lt;b&gt;%c4Description%&lt;/b&gt;&lt;/div&gt;" id="Bv_dtwl9otNV3yJubEU_-34">
          <mxCell style="endArrow=blockThin;html=1;fontSize=10;fontColor=#404040;strokeWidth=1;endFill=1;strokeColor=#828282;elbow=vertical;metaEdit=1;endSize=14;startSize=14;jumpStyle=arc;jumpSize=16;rounded=0;edgeStyle=orthogonalEdgeStyle;exitX=1;exitY=0.25;exitDx=0;exitDy=0;exitPerimeter=0;entryX=0;entryY=0.25;entryDx=0;entryDy=0;entryPerimeter=0;" edge="1" parent="1" source="Bv_dtwl9otNV3yJubEU_-29" target="Bv_dtwl9otNV3yJubEU_-32">
            <mxGeometry x="-0.1667" y="10" width="240" relative="1" as="geometry">
              <mxPoint x="215" as="sourcePoint" />
              <mxPoint x="360" y="100" as="targetPoint" />
              <Array as="points" />
              <mxPoint as="offset" />
            </mxGeometry>
          </mxCell>
        </object>
        <object placeholders="1" c4Type="Relationship" c4Description="Provide services" label="&lt;div style=&quot;text-align: left&quot;&gt;&lt;div style=&quot;text-align: center&quot;&gt;&lt;b&gt;%c4Description%&lt;/b&gt;&lt;/div&gt;" id="Bv_dtwl9otNV3yJubEU_-35">
          <mxCell style="endArrow=blockThin;html=1;fontSize=10;fontColor=#404040;strokeWidth=1;endFill=1;strokeColor=#828282;elbow=vertical;metaEdit=1;endSize=14;startSize=14;jumpStyle=arc;jumpSize=16;rounded=0;edgeStyle=orthogonalEdgeStyle;exitX=0;exitY=0.75;exitDx=0;exitDy=0;exitPerimeter=0;entryX=1;entryY=0.75;entryDx=0;entryDy=0;entryPerimeter=0;" edge="1" parent="1" source="Bv_dtwl9otNV3yJubEU_-32" target="Bv_dtwl9otNV3yJubEU_-29">
            <mxGeometry y="-10" width="240" relative="1" as="geometry">
              <mxPoint x="290" y="100" as="sourcePoint" />
              <mxPoint x="410" y="100" as="targetPoint" />
              <Array as="points" />
              <mxPoint as="offset" />
            </mxGeometry>
          </mxCell>
        </object>
        <object placeholders="1" c4Type="Relationship" c4Description="Monitor" label="&lt;div style=&quot;text-align: left&quot;&gt;&lt;div style=&quot;text-align: center&quot;&gt;&lt;b&gt;%c4Description%&lt;/b&gt;&lt;/div&gt;" id="Bv_dtwl9otNV3yJubEU_-36">
          <mxCell style="endArrow=blockThin;html=1;fontSize=10;fontColor=#404040;strokeWidth=1;endFill=1;strokeColor=#828282;elbow=vertical;metaEdit=1;endSize=14;startSize=14;jumpStyle=arc;jumpSize=16;rounded=0;exitX=1;exitY=0.75;exitDx=0;exitDy=0;exitPerimeter=0;entryX=0.25;entryY=0;entryDx=0;entryDy=0;entryPerimeter=0;" edge="1" parent="1" source="Bv_dtwl9otNV3yJubEU_-30" target="Bv_dtwl9otNV3yJubEU_-32">
            <mxGeometry x="-0.3953" width="240" relative="1" as="geometry">
              <mxPoint x="215" as="sourcePoint" />
              <mxPoint x="215" y="80" as="targetPoint" />
              <mxPoint as="offset" />
            </mxGeometry>
          </mxCell>
        </object>
        <object placeholders="1" c4Type="Relationship" c4Description="Perform research" label="&lt;div style=&quot;text-align: left&quot;&gt;&lt;div style=&quot;text-align: center&quot;&gt;&lt;b&gt;%c4Description%&lt;/b&gt;&lt;/div&gt;" id="Bv_dtwl9otNV3yJubEU_-37">
          <mxCell style="endArrow=blockThin;html=1;fontSize=10;fontColor=#404040;strokeWidth=1;endFill=1;strokeColor=#828282;elbow=vertical;metaEdit=1;endSize=14;startSize=14;jumpStyle=arc;jumpSize=16;rounded=0;exitX=0.5;exitY=1;exitDx=0;exitDy=0;exitPerimeter=0;entryX=0.5;entryY=0;entryDx=0;entryDy=0;entryPerimeter=0;" edge="1" parent="1" source="Bv_dtwl9otNV3yJubEU_-31" target="Bv_dtwl9otNV3yJubEU_-32">
            <mxGeometry x="-0.3953" width="240" relative="1" as="geometry">
              <mxPoint x="290" y="-35" as="sourcePoint" />
              <mxPoint x="448" y="80" as="targetPoint" />
              <mxPoint as="offset" />
            </mxGeometry>
          </mxCell>
        </object>
        <object placeholders="1" c4Name="Physical Crane" c4Type="Container" c4Technology="Hardware" c4Description="The physical crane" label="&lt;font style=&quot;font-size: 16px&quot;&gt;&lt;b&gt;%c4Name%&lt;/b&gt;&lt;/font&gt;&lt;div&gt;[%c4Type%: %c4Technology%]&lt;/div&gt;&lt;br&gt;&lt;div&gt;&lt;font style=&quot;font-size: 11px&quot;&gt;&lt;font&gt;%c4Description%&lt;/font&gt;&lt;/font&gt;&lt;/div&gt;" id="Bv_dtwl9otNV3yJubEU_-38">
          <mxCell style="rounded=1;whiteSpace=wrap;html=1;fontSize=11;labelBackgroundColor=none;fillColor=default;fontColor=default;align=center;arcSize=10;strokeColor=#0E7DAD;metaEdit=1;resizable=1;points=[[0.25,0,0],[0.5,0,0],[0.75,0,0],[1,0.25,0],[1,0.5,0],[1,0.75,0],[0.75,1,0],[0.5,1,0],[0.25,1,0],[0,0.75,0],[0,0.5,0],[0,0.25,0]];movable=1;rotatable=1;deletable=1;editable=1;locked=0;connectable=1;" vertex="1" parent="1">
            <mxGeometry x="40" y="540" width="160" height="90" as="geometry" />
          </mxCell>
        </object>
        <object placeholders="1" c4Type="Relationship" c4Description="interfaces" label="&lt;div style=&quot;text-align: left&quot;&gt;&lt;div style=&quot;text-align: center&quot;&gt;&lt;b&gt;%c4Description%&lt;/b&gt;&lt;/div&gt;" id="Bv_dtwl9otNV3yJubEU_-39">
          <mxCell style="endArrow=blockThin;html=1;fontSize=10;fontColor=#404040;strokeWidth=1;endFill=1;strokeColor=#828282;elbow=vertical;metaEdit=1;endSize=14;startSize=14;jumpStyle=arc;jumpSize=16;rounded=0;edgeStyle=orthogonalEdgeStyle;exitX=0.5;exitY=0;exitDx=0;exitDy=0;exitPerimeter=0;entryX=0.5;entryY=1;entryDx=0;entryDy=0;entryPerimeter=0;" edge="1" parent="1" source="Bv_dtwl9otNV3yJubEU_-2" target="Bv_dtwl9otNV3yJubEU_-38">
            <mxGeometry width="240" relative="1" as="geometry">
              <mxPoint x="130" y="790" as="sourcePoint" />
              <mxPoint x="290" y="835" as="targetPoint" />
            </mxGeometry>
          </mxCell>
        </object>
        <object placeholders="1" c4Name="Physical Crane" c4Type="ContainerScopeBoundary" c4Application="Container" label="&lt;font style=&quot;font-size: 16px&quot;&gt;&lt;b&gt;&lt;div style=&quot;text-align: left&quot;&gt;%c4Name%&lt;/div&gt;&lt;/b&gt;&lt;/font&gt;&lt;div style=&quot;text-align: left&quot;&gt;[%c4Application%]&lt;/div&gt;" id="Bv_dtwl9otNV3yJubEU_-41">
          <mxCell style="rounded=1;fontSize=11;whiteSpace=wrap;html=1;dashed=1;arcSize=20;fillColor=none;strokeColor=#666666;fontColor=#333333;labelBackgroundColor=none;align=left;verticalAlign=bottom;labelBorderColor=none;spacingTop=0;spacing=10;dashPattern=8 4;metaEdit=1;rotatable=0;perimeter=rectanglePerimeter;noLabel=0;labelPadding=0;allowArrows=0;connectable=0;expand=0;recursiveResize=0;editable=1;pointerEvents=0;absoluteArcSize=1;points=[[0.25,0,0],[0.5,0,0],[0.75,0,0],[1,0.25,0],[1,0.5,0],[1,0.75,0],[0.75,1,0],[0.5,1,0],[0.25,1,0],[0,0.75,0],[0,0.5,0],[0,0.25,0]];" vertex="1" parent="1">
            <mxGeometry x="-170" y="1020" width="490" height="620" as="geometry" />
          </mxCell>
        </object>
        <object placeholders="1" c4Name="Cart Motor" c4Type="Component" c4Technology="Stepper" c4Description="Motor for cart movement" label="&lt;font style=&quot;font-size: 16px&quot;&gt;&lt;b&gt;%c4Name%&lt;/b&gt;&lt;/font&gt;&lt;div&gt;[%c4Type%: %c4Technology%]&lt;/div&gt;&lt;br&gt;&lt;div&gt;&lt;font style=&quot;font-size: 11px&quot;&gt;%c4Description%&lt;/font&gt;&lt;/div&gt;" id="Bv_dtwl9otNV3yJubEU_-42">
          <mxCell style="rounded=1;whiteSpace=wrap;html=1;labelBackgroundColor=none;fillColor=default;fontColor=default;align=center;arcSize=6;strokeColor=#2086C9;metaEdit=1;resizable=1;points=[[0.25,0,0],[0.5,0,0],[0.75,0,0],[1,0.25,0],[1,0.5,0],[1,0.75,0],[0.75,1,0],[0.5,1,0],[0.25,1,0],[0,0.75,0],[0,0.5,0],[0,0.25,0]];movable=1;rotatable=1;deletable=1;editable=1;locked=0;connectable=1;" vertex="1" parent="1">
            <mxGeometry x="150" y="1400" width="150" height="80" as="geometry" />
          </mxCell>
        </object>
        <object placeholders="1" c4Name="Hoist Motor" c4Type="Component" c4Technology="Stepper" c4Description="Motor for hoist movement" label="&lt;font style=&quot;font-size: 16px&quot;&gt;&lt;b&gt;%c4Name%&lt;/b&gt;&lt;/font&gt;&lt;div&gt;[%c4Type%: %c4Technology%]&lt;/div&gt;&lt;br&gt;&lt;div&gt;&lt;font style=&quot;font-size: 11px&quot;&gt;%c4Description%&lt;/font&gt;&lt;/div&gt;" id="Bv_dtwl9otNV3yJubEU_-43">
          <mxCell style="rounded=1;whiteSpace=wrap;html=1;labelBackgroundColor=none;fillColor=default;fontColor=default;align=center;arcSize=6;strokeColor=#2086C9;metaEdit=1;resizable=1;points=[[0.25,0,0],[0.5,0,0],[0.75,0,0],[1,0.25,0],[1,0.5,0],[1,0.75,0],[0.75,1,0],[0.5,1,0],[0.25,1,0],[0,0.75,0],[0,0.5,0],[0,0.25,0]];movable=1;rotatable=1;deletable=1;editable=1;locked=0;connectable=1;" vertex="1" parent="1">
            <mxGeometry x="150" y="1500" width="150" height="80" as="geometry" />
          </mxCell>
        </object>
        <object placeholders="1" c4Name="Crane Frame" c4Type="Component" c4Technology="Hardware" c4Description="Physical Structure" label="&lt;font style=&quot;font-size: 16px&quot;&gt;&lt;b&gt;%c4Name%&lt;/b&gt;&lt;/font&gt;&lt;div&gt;[%c4Type%: %c4Technology%]&lt;/div&gt;&lt;br&gt;&lt;div&gt;&lt;font style=&quot;font-size: 11px&quot;&gt;%c4Description%&lt;/font&gt;&lt;/div&gt;" id="Bv_dtwl9otNV3yJubEU_-44">
          <mxCell style="rounded=1;whiteSpace=wrap;html=1;labelBackgroundColor=none;fillColor=default;fontColor=default;align=center;arcSize=6;strokeColor=#2086C9;metaEdit=1;resizable=1;points=[[0.25,0,0],[0.5,0,0],[0.75,0,0],[1,0.25,0],[1,0.5,0],[1,0.75,0],[0.75,1,0],[0.5,1,0],[0.25,1,0],[0,0.75,0],[0,0.5,0],[0,0.25,0]];movable=1;rotatable=1;deletable=1;editable=1;locked=0;connectable=1;" vertex="1" parent="1">
            <mxGeometry x="-120" y="1040" width="150" height="90" as="geometry" />
          </mxCell>
        </object>
        <object placeholders="1" c4Name="Electromagnet" c4Type="Component" c4Technology="Electromagnet" c4Description="Electromagnet to pick up containers" label="&lt;font style=&quot;font-size: 16px&quot;&gt;&lt;b&gt;%c4Name%&lt;/b&gt;&lt;/font&gt;&lt;div&gt;[%c4Type%: %c4Technology%]&lt;/div&gt;&lt;br&gt;&lt;div&gt;&lt;font style=&quot;font-size: 11px&quot;&gt;%c4Description%&lt;/font&gt;&lt;/div&gt;" id="Bv_dtwl9otNV3yJubEU_-45">
          <mxCell style="rounded=1;whiteSpace=wrap;html=1;labelBackgroundColor=none;fillColor=default;fontColor=default;align=center;arcSize=6;strokeColor=#2086C9;metaEdit=1;resizable=1;points=[[0.25,0,0],[0.5,0,0],[0.75,0,0],[1,0.25,0],[1,0.5,0],[1,0.75,0],[0.75,1,0],[0.5,1,0],[0.25,1,0],[0,0.75,0],[0,0.5,0],[0,0.25,0]];movable=1;rotatable=1;deletable=1;editable=1;locked=0;connectable=1;" vertex="1" parent="1">
            <mxGeometry x="150" y="1040" width="150" height="100" as="geometry" />
          </mxCell>
        </object>
        <object placeholders="1" c4Name="PSU" c4Type="Component" c4Technology="PSU" c4Description="24V Power supply" label="&lt;font style=&quot;font-size: 16px&quot;&gt;&lt;b&gt;%c4Name%&lt;/b&gt;&lt;/font&gt;&lt;div&gt;[%c4Type%: %c4Technology%]&lt;/div&gt;&lt;br&gt;&lt;div&gt;&lt;font style=&quot;font-size: 11px&quot;&gt;%c4Description%&lt;/font&gt;&lt;/div&gt;" id="Bv_dtwl9otNV3yJubEU_-46">
          <mxCell style="rounded=1;whiteSpace=wrap;html=1;labelBackgroundColor=none;fillColor=default;fontColor=default;align=center;arcSize=6;strokeColor=#2086C9;metaEdit=1;resizable=1;points=[[0.25,0,0],[0.5,0,0],[0.75,0,0],[1,0.25,0],[1,0.5,0],[1,0.75,0],[0.75,1,0],[0.5,1,0],[0.25,1,0],[0,0.75,0],[0,0.5,0],[0,0.25,0]];movable=1;rotatable=1;deletable=1;editable=1;locked=0;connectable=1;" vertex="1" parent="1">
            <mxGeometry x="-120" y="1150" width="150" height="90" as="geometry" />
          </mxCell>
        </object>
        <object placeholders="1" c4Name="Cart Motor Controller" c4Type="Component" c4Technology="TMC4671-Eval" c4Description="Motor controller of the cart motor" label="&lt;font style=&quot;font-size: 16px&quot;&gt;&lt;b&gt;%c4Name%&lt;/b&gt;&lt;/font&gt;&lt;div&gt;[%c4Type%: %c4Technology%]&lt;/div&gt;&lt;br&gt;&lt;div&gt;&lt;font style=&quot;font-size: 11px&quot;&gt;%c4Description%&lt;/font&gt;&lt;/div&gt;" id="Bv_dtwl9otNV3yJubEU_-47">
          <mxCell style="rounded=1;whiteSpace=wrap;html=1;labelBackgroundColor=none;fillColor=default;fontColor=default;align=center;arcSize=6;strokeColor=#2086C9;metaEdit=1;resizable=1;points=[[0.25,0,0],[0.5,0,0],[0.75,0,0],[1,0.25,0],[1,0.5,0],[1,0.75,0],[0.75,1,0],[0.5,1,0],[0.25,1,0],[0,0.75,0],[0,0.5,0],[0,0.25,0]];movable=1;rotatable=1;deletable=1;editable=1;locked=0;connectable=1;" vertex="1" parent="1">
            <mxGeometry x="-120" y="1400" width="180" height="80" as="geometry" />
          </mxCell>
        </object>
        <object placeholders="1" c4Name="Hoist Motor Controller" c4Type="Component" c4Technology="TMC4671-Eval" c4Description="Motor controller of the hoist motor" label="&lt;font style=&quot;font-size: 16px&quot;&gt;&lt;b&gt;%c4Name%&lt;/b&gt;&lt;/font&gt;&lt;div&gt;[%c4Type%: %c4Technology%]&lt;/div&gt;&lt;br&gt;&lt;div&gt;&lt;font style=&quot;font-size: 11px&quot;&gt;%c4Description%&lt;/font&gt;&lt;/div&gt;" id="Bv_dtwl9otNV3yJubEU_-48">
          <mxCell style="rounded=1;whiteSpace=wrap;html=1;labelBackgroundColor=none;fillColor=default;fontColor=default;align=center;arcSize=6;strokeColor=#2086C9;metaEdit=1;resizable=1;points=[[0.25,0,0],[0.5,0,0],[0.75,0,0],[1,0.25,0],[1,0.5,0],[1,0.75,0],[0.75,1,0],[0.5,1,0],[0.25,1,0],[0,0.75,0],[0,0.5,0],[0,0.25,0]];movable=1;rotatable=1;deletable=1;editable=1;locked=0;connectable=1;" vertex="1" parent="1">
            <mxGeometry x="-120" y="1500" width="180" height="80" as="geometry" />
          </mxCell>
        </object>
        <object placeholders="1" c4Name="Swing Angle Encoder" c4Type="Component" c4Technology="Encoder" c4Description="Encoder that measures swing angle" label="&lt;font style=&quot;font-size: 16px&quot;&gt;&lt;b&gt;%c4Name%&lt;/b&gt;&lt;/font&gt;&lt;div&gt;[%c4Type%: %c4Technology%]&lt;/div&gt;&lt;br&gt;&lt;div&gt;&lt;font style=&quot;font-size: 11px&quot;&gt;%c4Description%&lt;/font&gt;&lt;/div&gt;" id="Bv_dtwl9otNV3yJubEU_-49">
          <mxCell style="rounded=1;whiteSpace=wrap;html=1;labelBackgroundColor=none;fillColor=default;fontColor=default;align=center;arcSize=6;strokeColor=#2086C9;metaEdit=1;resizable=1;points=[[0.25,0,0],[0.5,0,0],[0.75,0,0],[1,0.25,0],[1,0.5,0],[1,0.75,0],[0.75,1,0],[0.5,1,0],[0.25,1,0],[0,0.75,0],[0,0.5,0],[0,0.25,0]];movable=1;rotatable=1;deletable=1;editable=1;locked=0;connectable=1;" vertex="1" parent="1">
            <mxGeometry x="150" y="1270" width="150" height="110" as="geometry" />
          </mxCell>
        </object>
        <object placeholders="1" c4Name="Arduino" c4Type="Component" c4Technology="Arduino" c4Description="Measurement and control Arduino" label="&lt;font style=&quot;font-size: 16px&quot;&gt;&lt;b&gt;%c4Name%&lt;/b&gt;&lt;/font&gt;&lt;div&gt;[%c4Type%: %c4Technology%]&lt;/div&gt;&lt;br&gt;&lt;div&gt;&lt;font style=&quot;font-size: 11px&quot;&gt;%c4Description%&lt;/font&gt;&lt;/div&gt;" id="Bv_dtwl9otNV3yJubEU_-50">
          <mxCell style="rounded=1;whiteSpace=wrap;html=1;labelBackgroundColor=none;fillColor=default;fontColor=default;align=center;arcSize=6;strokeColor=#2086C9;metaEdit=1;resizable=1;points=[[0.25,0,0],[0.5,0,0],[0.75,0,0],[1,0.25,0],[1,0.5,0],[1,0.75,0],[0.75,1,0],[0.5,1,0],[0.25,1,0],[0,0.75,0],[0,0.5,0],[0,0.25,0]];movable=1;rotatable=1;deletable=1;editable=1;locked=0;connectable=1;" vertex="1" parent="1">
            <mxGeometry x="-120" y="1280" width="150" height="90" as="geometry" />
          </mxCell>
        </object>
        <object placeholders="1" c4Name="Anemometer" c4Type="Component" c4Technology="Anemometer" c4Description="Anemometer that measures windspeed" label="&lt;font style=&quot;font-size: 16px&quot;&gt;&lt;b&gt;%c4Name%&lt;/b&gt;&lt;/font&gt;&lt;div&gt;[%c4Type%: %c4Technology%]&lt;/div&gt;&lt;br&gt;&lt;div&gt;&lt;font style=&quot;font-size: 11px&quot;&gt;%c4Description%&lt;/font&gt;&lt;/div&gt;" id="Bv_dtwl9otNV3yJubEU_-51">
          <mxCell style="rounded=1;whiteSpace=wrap;html=1;labelBackgroundColor=none;fillColor=default;fontColor=default;align=center;arcSize=6;strokeColor=#2086C9;metaEdit=1;resizable=1;points=[[0.25,0,0],[0.5,0,0],[0.75,0,0],[1,0.25,0],[1,0.5,0],[1,0.75,0],[0.75,1,0],[0.5,1,0],[0.25,1,0],[0,0.75,0],[0,0.5,0],[0,0.25,0]];movable=1;rotatable=1;deletable=1;editable=1;locked=0;connectable=1;" vertex="1" parent="1">
            <mxGeometry x="150" y="1160" width="150" height="90" as="geometry" />
          </mxCell>
        </object>
        <object placeholders="1" c4Type="Relationship" c4Description="Control/&#xa;Monitor" label="&lt;div style=&quot;text-align: left&quot;&gt;&lt;div style=&quot;text-align: center&quot;&gt;&lt;b&gt;%c4Description%&lt;/b&gt;&lt;/div&gt;" id="Bv_dtwl9otNV3yJubEU_-52">
          <mxCell style="endArrow=blockThin;html=1;fontSize=10;fontColor=#404040;strokeWidth=1;endFill=1;strokeColor=#828282;elbow=vertical;metaEdit=1;endSize=14;startSize=14;jumpStyle=arc;jumpSize=16;rounded=0;edgeStyle=orthogonalEdgeStyle;exitX=1;exitY=0.5;exitDx=0;exitDy=0;exitPerimeter=0;entryX=0;entryY=0.5;entryDx=0;entryDy=0;entryPerimeter=0;" edge="1" parent="1" source="Bv_dtwl9otNV3yJubEU_-48" target="Bv_dtwl9otNV3yJubEU_-43">
            <mxGeometry width="240" relative="1" as="geometry">
              <mxPoint x="99.75" y="1595" as="sourcePoint" />
              <mxPoint x="110" y="1490" as="targetPoint" />
            </mxGeometry>
          </mxCell>
        </object>
        <object placeholders="1" c4Type="Relationship" c4Description="Control/&#xa;Monitor" label="&lt;div style=&quot;text-align: left&quot;&gt;&lt;div style=&quot;text-align: center&quot;&gt;&lt;b&gt;%c4Description%&lt;/b&gt;&lt;/div&gt;" id="Bv_dtwl9otNV3yJubEU_-53">
          <mxCell style="endArrow=blockThin;html=1;fontSize=10;fontColor=#404040;strokeWidth=1;endFill=1;strokeColor=#828282;elbow=vertical;metaEdit=1;endSize=14;startSize=14;jumpStyle=arc;jumpSize=16;rounded=0;edgeStyle=orthogonalEdgeStyle;exitX=1;exitY=0.5;exitDx=0;exitDy=0;exitPerimeter=0;entryX=0;entryY=0.5;entryDx=0;entryDy=0;entryPerimeter=0;" edge="1" parent="1" source="Bv_dtwl9otNV3yJubEU_-47" target="Bv_dtwl9otNV3yJubEU_-42">
            <mxGeometry width="240" relative="1" as="geometry">
              <mxPoint x="70" y="1550" as="sourcePoint" />
              <mxPoint x="120" y="1480" as="targetPoint" />
            </mxGeometry>
          </mxCell>
        </object>
        <object placeholders="1" c4Type="Relationship" c4Description="Actuate" label="&lt;div style=&quot;text-align: left&quot;&gt;&lt;div style=&quot;text-align: center&quot;&gt;&lt;b&gt;%c4Description%&lt;/b&gt;&lt;/div&gt;" id="Bv_dtwl9otNV3yJubEU_-54">
          <mxCell style="endArrow=blockThin;html=1;fontSize=10;fontColor=#404040;strokeWidth=1;endFill=1;strokeColor=#828282;elbow=vertical;metaEdit=1;endSize=14;startSize=14;jumpStyle=arc;jumpSize=16;rounded=0;edgeStyle=orthogonalEdgeStyle;exitX=1;exitY=0.5;exitDx=0;exitDy=0;exitPerimeter=0;entryX=0;entryY=0.5;entryDx=0;entryDy=0;entryPerimeter=0;" edge="1" parent="1" source="Bv_dtwl9otNV3yJubEU_-50" target="Bv_dtwl9otNV3yJubEU_-45">
            <mxGeometry width="240" relative="1" as="geometry">
              <mxPoint x="70" y="1450" as="sourcePoint" />
              <mxPoint x="160" y="1450" as="targetPoint" />
              <Array as="points">
                <mxPoint x="60" y="1325" />
                <mxPoint x="60" y="1090" />
              </Array>
            </mxGeometry>
          </mxCell>
        </object>
        <object placeholders="1" c4Type="Relationship" c4Description="Measure" label="&lt;div style=&quot;text-align: left&quot;&gt;&lt;div style=&quot;text-align: center&quot;&gt;&lt;b&gt;%c4Description%&lt;/b&gt;&lt;/div&gt;" id="Bv_dtwl9otNV3yJubEU_-55">
          <mxCell style="endArrow=blockThin;html=1;fontSize=10;fontColor=#404040;strokeWidth=1;endFill=1;strokeColor=#828282;elbow=vertical;metaEdit=1;endSize=14;startSize=14;jumpStyle=arc;jumpSize=16;rounded=0;edgeStyle=orthogonalEdgeStyle;exitX=1;exitY=0.5;exitDx=0;exitDy=0;exitPerimeter=0;entryX=0;entryY=0.5;entryDx=0;entryDy=0;entryPerimeter=0;" edge="1" parent="1" source="Bv_dtwl9otNV3yJubEU_-50" target="Bv_dtwl9otNV3yJubEU_-51">
            <mxGeometry x="0.0417" y="-10" width="240" relative="1" as="geometry">
              <mxPoint x="80" y="1460" as="sourcePoint" />
              <mxPoint x="170" y="1460" as="targetPoint" />
              <Array as="points">
                <mxPoint x="80" y="1325" />
                <mxPoint x="80" y="1205" />
              </Array>
              <mxPoint as="offset" />
            </mxGeometry>
          </mxCell>
        </object>
        <object placeholders="1" c4Type="Relationship" c4Description="Measure" label="&lt;div style=&quot;text-align: left&quot;&gt;&lt;div style=&quot;text-align: center&quot;&gt;&lt;b&gt;%c4Description%&lt;/b&gt;&lt;/div&gt;" id="Bv_dtwl9otNV3yJubEU_-56">
          <mxCell style="endArrow=blockThin;html=1;fontSize=10;fontColor=#404040;strokeWidth=1;endFill=1;strokeColor=#828282;elbow=vertical;metaEdit=1;endSize=14;startSize=14;jumpStyle=arc;jumpSize=16;rounded=0;edgeStyle=orthogonalEdgeStyle;exitX=1;exitY=0.5;exitDx=0;exitDy=0;exitPerimeter=0;entryX=0;entryY=0.5;entryDx=0;entryDy=0;entryPerimeter=0;" edge="1" parent="1" source="Bv_dtwl9otNV3yJubEU_-50" target="Bv_dtwl9otNV3yJubEU_-49">
            <mxGeometry x="0.3333" y="15" width="240" relative="1" as="geometry">
              <mxPoint x="40" y="1345" as="sourcePoint" />
              <mxPoint x="160" y="1215" as="targetPoint" />
              <Array as="points">
                <mxPoint x="70" y="1325" />
                <mxPoint x="70" y="1325" />
              </Array>
              <mxPoint as="offset" />
            </mxGeometry>
          </mxCell>
        </object>
        <object placeholders="1" c4Name="gantrylib" c4Type="SystemScopeBoundary" c4Application="Python Module" label="&lt;font style=&quot;font-size: 16px&quot;&gt;&lt;b&gt;&lt;div style=&quot;text-align: left&quot;&gt;%c4Name%&lt;/div&gt;&lt;/b&gt;&lt;/font&gt;&lt;div style=&quot;text-align: left&quot;&gt;[%c4Application%]&lt;/div&gt;" id="Bv_dtwl9otNV3yJubEU_-59">
          <mxCell style="rounded=1;fontSize=11;whiteSpace=wrap;html=1;dashed=1;arcSize=20;fillColor=none;strokeColor=#666666;fontColor=#333333;labelBackgroundColor=none;align=left;verticalAlign=bottom;labelBorderColor=none;spacingTop=0;spacing=10;dashPattern=8 4;metaEdit=1;rotatable=0;perimeter=rectanglePerimeter;noLabel=0;labelPadding=0;allowArrows=0;connectable=0;expand=0;recursiveResize=0;editable=1;pointerEvents=0;absoluteArcSize=1;points=[[0.25,0,0],[0.5,0,0],[0.75,0,0],[1,0.25,0],[1,0.5,0],[1,0.75,0],[0.75,1,0],[0.5,1,0],[0.25,1,0],[0,0.75,0],[0,0.5,0],[0,0.25,0]];" vertex="1" parent="1">
            <mxGeometry x="540" y="1080" width="230" height="300" as="geometry" />
          </mxCell>
        </object>
        <object placeholders="1" c4Name="Computer" c4Type="SystemScopeBoundary" c4Application="Personal Computer" label="&lt;font style=&quot;font-size: 16px&quot;&gt;&lt;b&gt;&lt;div style=&quot;text-align: left&quot;&gt;%c4Name%&lt;/div&gt;&lt;/b&gt;&lt;/font&gt;&lt;div style=&quot;text-align: left&quot;&gt;[%c4Application%]&lt;/div&gt;" id="Bv_dtwl9otNV3yJubEU_-60">
          <mxCell style="rounded=1;fontSize=11;whiteSpace=wrap;html=1;dashed=1;arcSize=20;fillColor=none;strokeColor=#666666;fontColor=#333333;labelBackgroundColor=none;align=left;verticalAlign=bottom;labelBorderColor=none;spacingTop=0;spacing=10;dashPattern=8 4;metaEdit=1;rotatable=0;perimeter=rectanglePerimeter;noLabel=0;labelPadding=0;allowArrows=0;connectable=0;expand=0;recursiveResize=0;editable=1;pointerEvents=0;absoluteArcSize=1;points=[[0.25,0,0],[0.5,0,0],[0.75,0,0],[1,0.25,0],[1,0.5,0],[1,0.75,0],[0.75,1,0],[0.5,1,0],[0.25,1,0],[0,0.75,0],[0,0.5,0],[0,0.25,0]];" vertex="1" parent="1">
            <mxGeometry x="530" y="1070" width="380" height="360" as="geometry" />
          </mxCell>
        </object>
        <mxCell id="Bv_dtwl9otNV3yJubEU_-64" value="&lt;b&gt;&lt;font style=&quot;font-size: 16px;&quot;&gt;Human&lt;br&gt;Machine&lt;br&gt;Interface&lt;/font&gt;&lt;/b&gt;" style="rounded=1;whiteSpace=wrap;html=1;strokeColor=#0E7DAD;" vertex="1" parent="1">
          <mxGeometry x="660" y="1090" width="100" height="60" as="geometry" />
        </mxCell>
        <mxCell id="Bv_dtwl9otNV3yJubEU_-65" value="&lt;span style=&quot;font-size: 16px;&quot;&gt;&lt;b&gt;Control&lt;br&gt;Application&lt;/b&gt;&lt;/span&gt;" style="rounded=1;whiteSpace=wrap;html=1;strokeColor=#0E7DAD;" vertex="1" parent="1">
          <mxGeometry x="550" y="1160" width="100" height="60" as="geometry" />
        </mxCell>
        <mxCell id="Bv_dtwl9otNV3yJubEU_-66" value="&lt;span style=&quot;font-size: 16px;&quot;&gt;&lt;b&gt;Logging&lt;br&gt;Application&lt;/b&gt;&lt;/span&gt;" style="rounded=1;whiteSpace=wrap;html=1;strokeColor=#0E7DAD;" vertex="1" parent="1">
          <mxGeometry x="550" y="1230" width="100" height="60" as="geometry" />
        </mxCell>
        <mxCell id="Bv_dtwl9otNV3yJubEU_-67" value="&lt;span style=&quot;font-size: 16px;&quot;&gt;&lt;b&gt;Trajectory&lt;br&gt;Generator&lt;br&gt;Service&lt;/b&gt;&lt;/span&gt;" style="rounded=1;whiteSpace=wrap;html=1;strokeColor=#0E7DAD;" vertex="1" parent="1">
          <mxGeometry x="660" y="1160" width="100" height="60" as="geometry" />
        </mxCell>
        <mxCell id="Bv_dtwl9otNV3yJubEU_-68" value="&lt;span style=&quot;font-size: 16px;&quot;&gt;&lt;b&gt;Simulation&lt;br&gt;Service&lt;/b&gt;&lt;/span&gt;" style="rounded=1;whiteSpace=wrap;html=1;strokeColor=#0E7DAD;" vertex="1" parent="1">
          <mxGeometry x="660" y="1230" width="100" height="60" as="geometry" />
        </mxCell>
        <mxCell id="Bv_dtwl9otNV3yJubEU_-69" value="&lt;span style=&quot;font-size: 16px;&quot;&gt;&lt;b&gt;Continuous Validation&lt;br&gt;Service&lt;/b&gt;&lt;/span&gt;" style="rounded=1;whiteSpace=wrap;html=1;strokeColor=#0E7DAD;" vertex="1" parent="1">
          <mxGeometry x="660" y="1300" width="100" height="60" as="geometry" />
        </mxCell>
        <object placeholders="1" c4Name="Docker" c4Type="SystemScopeBoundary" c4Application="Containerization" label="&lt;font style=&quot;font-size: 16px&quot;&gt;&lt;b&gt;&lt;div style=&quot;text-align: left&quot;&gt;%c4Name%&lt;/div&gt;&lt;/b&gt;&lt;/font&gt;&lt;div style=&quot;text-align: left&quot;&gt;[%c4Application%]&lt;/div&gt;" id="Bv_dtwl9otNV3yJubEU_-70">
          <mxCell style="rounded=1;fontSize=11;whiteSpace=wrap;html=1;dashed=1;arcSize=20;fillColor=none;strokeColor=#666666;fontColor=#333333;labelBackgroundColor=none;align=left;verticalAlign=bottom;labelBorderColor=none;spacingTop=0;spacing=10;dashPattern=8 4;metaEdit=1;rotatable=0;perimeter=rectanglePerimeter;noLabel=0;labelPadding=0;allowArrows=0;connectable=0;expand=0;recursiveResize=0;editable=1;pointerEvents=0;absoluteArcSize=1;points=[[0.25,0,0],[0.5,0,0],[0.75,0,0],[1,0.25,0],[1,0.5,0],[1,0.75,0],[0.75,1,0],[0.5,1,0],[0.25,1,0],[0,0.75,0],[0,0.5,0],[0,0.25,0]];" vertex="1" parent="1">
            <mxGeometry x="780" y="1080" width="120" height="300" as="geometry" />
          </mxCell>
        </object>
        <mxCell id="Bv_dtwl9otNV3yJubEU_-71" value="&lt;span style=&quot;font-size: 16px;&quot;&gt;&lt;b&gt;Physical&lt;/b&gt;&lt;/span&gt;&lt;div&gt;&lt;span style=&quot;font-size: 16px;&quot;&gt;&lt;b&gt;Crane &lt;br&gt;Interface&lt;/b&gt;&lt;/span&gt;&lt;/div&gt;" style="rounded=1;whiteSpace=wrap;html=1;strokeColor=#0E7DAD;" vertex="1" parent="1">
          <mxGeometry x="550" y="1090" width="100" height="60" as="geometry" />
        </mxCell>
        <mxCell id="Bv_dtwl9otNV3yJubEU_-72" value="&lt;span style=&quot;font-size: 16px;&quot;&gt;&lt;b&gt;MQTT &lt;br&gt;Broker&lt;/b&gt;&lt;/span&gt;" style="rounded=1;whiteSpace=wrap;html=1;strokeColor=#0E7DAD;" vertex="1" parent="1">
          <mxGeometry x="790" y="1090" width="100" height="60" as="geometry" />
        </mxCell>
        <mxCell id="Bv_dtwl9otNV3yJubEU_-73" value="&lt;span style=&quot;font-size: 16px;&quot;&gt;&lt;b&gt;Dashboard&lt;/b&gt;&lt;/span&gt;" style="rounded=1;whiteSpace=wrap;html=1;strokeColor=#0E7DAD;" vertex="1" parent="1">
          <mxGeometry x="790" y="1160" width="100" height="60" as="geometry" />
        </mxCell>
        <mxCell id="Bv_dtwl9otNV3yJubEU_-74" value="&lt;b&gt;&lt;font style=&quot;font-size: 16px;&quot;&gt;Database&lt;/font&gt;&lt;/b&gt;" style="shape=cylinder3;whiteSpace=wrap;html=1;boundedLbl=1;backgroundOutline=1;size=15;strokeColor=#0E7DAD;" vertex="1" parent="1">
          <mxGeometry x="795" y="1230" width="90" height="70" as="geometry" />
        </mxCell>
      </root>
    </mxGraphModel>
  </diagram>
</mxfile>
